<?xml version="1.0" encoding="UTF-8"?>
<svg id="Layer_1" xmlns="http://www.w3.org/2000/svg" version="1.1" viewBox="0 0 750 563.15">
  <!-- Generator: Adobe Illustrator 30.0.0, SVG Export Plug-In . SVG Version: 2.1.1 Build 123)  -->
  <defs>
    <style>
      .st0 {
        fill: #527dbf;
      }

      .st1 {
        fill: #f7bb17;
      }

      .st2 {
        fill: #ec2d2a;
      }

      .st3 {
        fill: #33a951;
      }
    </style>
  </defs>
  <path class="st3" d="M687.38,105.72v351.7c0,58.4-47.31,105.72-105.7,105.72H168.29c-58.37,0-105.7-47.34-105.7-105.72V105.72C62.59,47.33,109.93,0,168.29,0h413.4C640.09,0,687.39,47.34,687.39,105.72h-.01Z"/>
  <path class="st1" d="M687.38,196.99v260.44c0,58.4-47.31,105.72-105.7,105.72H168.29c-58.37,0-105.7-47.34-105.7-105.72V196.99c0-58.4,47.34-105.7,105.7-105.7h413.4c58.4,0,105.7,47.31,105.7,105.7h-.01Z"/>
  <path class="st2" d="M687.38,285.26v172.17c0,58.4-47.31,105.72-105.7,105.72H168.29c-58.37,0-105.7-47.34-105.7-105.72v-172.17c0-58.4,47.34-105.7,105.7-105.7h413.4c58.4,0,105.7,47.31,105.7,105.7h-.01Z"/>
  <path class="st0" d="M687.41,234.87v222.57c0,58.4-47.34,105.7-105.72,105.7H168.29c-58.37,0-105.7-47.31-105.7-105.7v-218.95l390.58,95.39c49.45,12.06,101.68,1.28,142.24-29.44l92.01-69.58h-.01Z"/>
</svg>