<?xml version="1.0" encoding="UTF-8"?>
<svg id="Layer_1" xmlns="http://www.w3.org/2000/svg" version="1.1" viewBox="0 0 750 563.15">
  <!-- Generator: Adobe Illustrator 30.0.0, SVG Export Plug-In . SVG Version: 2.1.1 Build 123)  -->
  <defs>
    <style>
      .st0 {
        fill: #527dbe;
      }

      .st1 {
        fill: #31a750;
      }

      .st2 {
        fill: #f4ba18;
      }

      .st3 {
        fill: #eb2d2c;
      }
    </style>
  </defs>
  <path class="st1" d="M749.95,105.72v351.7c0,58.4-56.79,105.72-126.87,105.72H126.87c-70.06,0-126.87-47.34-126.87-105.72V105.72C0,47.33,56.82,0,126.87,0h496.21c70.1,0,126.87,47.34,126.87,105.72h-.01Z"/>
  <path class="st2" d="M749.95,196.99v260.44c0,58.4-56.79,105.72-126.87,105.72H126.87c-70.06,0-126.87-47.34-126.87-105.72V196.99c0-58.4,56.82-105.7,126.87-105.7h496.21c70.1,0,126.87,47.31,126.87,105.7h-.01Z"/>
  <path class="st3" d="M749.95,285.26v172.17c0,58.4-56.79,105.72-126.87,105.72H126.87c-70.06,0-126.87-47.34-126.87-105.72v-172.17c0-58.4,56.82-105.7,126.87-105.7h496.21c70.1,0,126.87,47.31,126.87,105.7h-.01Z"/>
  <path class="st0" d="M749.99,234.87v222.57c0,58.4-56.82,105.7-126.9,105.7H126.87c-70.06,0-126.87-47.31-126.87-105.7v-218.95l468.82,95.39c59.36,12.06,122.05,1.28,170.73-29.44l110.44-69.58h-.01Z"/>
</svg>